<?xml version="1.0" encoding="utf-8"?>
<svg version="1.1" xmlns:xlink="http://www.w3.org/1999/xlink" width="1544px" height="395px" xmlns="http://www.w3.org/2000/svg">
  <defs>
    <filter x="21px" y="92px" width="1544px" height="395px" filterUnits="userSpaceOnUse" id="filter102">
      <feOffset dx="0" dy="2" in="SourceAlpha" result="shadowOffsetInner" />
      <feGaussianBlur stdDeviation="2.5" in="shadowOffsetInner" result="shadowGaussian" />
      <feComposite in2="shadowGaussian" operator="atop" in="SourceAlpha" result="shadowComposite" />
      <feColorMatrix type="matrix" values="0 0 0 0 0  0 0 0 0 0  0 0 0 0 0  0 0 0 0.101960784313725 0  " in="shadowComposite" />
    </filter>
    <g id="widget103">
      <path d="M 26.5 103  A 7.5 7.5 0 0 1 34 95.5 L 1552 95.5  A 7.5 7.5 0 0 1 1559.5 103 L 1559.5 472  A 7.5 7.5 0 0 1 1552 479.5 L 34 479.5  A 7.5 7.5 0 0 1 26.5 472 L 26.5 103  Z " fill-rule="nonzero" fill="#ffffff" stroke="none" fill-opacity="0" />
      <path d="M 26.5 103  A 7.5 7.5 0 0 1 34 95.5 L 1552 95.5  A 7.5 7.5 0 0 1 1559.5 103 L 1559.5 472  A 7.5 7.5 0 0 1 1552 479.5 L 34 479.5  A 7.5 7.5 0 0 1 26.5 472 L 26.5 103  Z " stroke-width="1" stroke="#d7d7d7" fill="none" />
    </g>
  </defs>
  <g transform="matrix(1 0 0 1 -21 -92 )">
    <use xlink:href="#widget103" filter="url(#filter102)" />
    <use xlink:href="#widget103" />
  </g>
</svg>