<?xml version="1.0" encoding="utf-8"?>
<svg version="1.1" xmlns:xlink="http://www.w3.org/1999/xlink" width="3px" height="3px" xmlns="http://www.w3.org/2000/svg">
  <g transform="matrix(1 0 0 1 -442 -302 )">
    <path d="M 2.50865384521484 2.94807692871094  L 0.489423071289062 2.94807692871094  C 0.22390155616944 2.94807692871094  0.00865383911132778 2.73282921165283  0.00865383911132778 2.4673076965332  C 0.00865383911132778 2.20178618141358  0.22390155616944 1.98653846435547  0.489423071289062 1.98653846435547  L 2.50865384521484 1.98653846435547  C 2.77417536033447 1.98653846435547  2.98942307739258 2.20178618141358  2.98942307739258 2.4673076965332  C 2.98942307739258 2.73282921165282  2.77417536033447 2.94807692871094  2.50865384521484 2.94807692871094  Z M 2.50865384521484 1.01634615478516  L 0.489423071289062 1.01634615478516  C 0.22390155616944 1.01634615478516  0.00865383911132778 0.801098437727044  0.00865383911132778 0.535576922607422  C 0.00865383911132778 0.270055407487799  0.22390155616944 0.054807690429687  0.489423071289062 0.054807690429687  L 2.50865384521484 0.0548076904296875  C 2.77417536033447 0.054807690429687  2.98942307739258 0.270055407487799  2.98942307739258 0.535576922607422  C 2.98942307739258 0.801098437727044  2.77417536033447 1.01634615478516  2.50865384521484 1.01634615478516  Z " fill-rule="nonzero" fill="#333333" stroke="none" transform="matrix(1 0 0 1 442 302 )" />
  </g>
</svg>